<svg xmlns="http://www.w3.org/2000/svg" width="426" height="125" viewBox="0 0 426 125">
  <path d="M99.968 36.508V89.95H77.968V36.508h22zm-30.2-0.0002H20.768v19.5h49v34H0.768v-53.5h69zm257 0.0002V62.908h-27V36.508h27zm0 53.4h-27V61.908h27v28zm-50.5-53.4v53.499h-17.724c-9.272-6.118-13.276-6.5-19.276-6.5-1.75 0-6.5 1-10 1.75V58.757H179.268v-22.25h97zm-77-0.0002V48.608h-22V36.508h22zm302.5 24.1c9.113 0 16.5 7.387 16.5 16.5 0 9.113-7.387 16.5-16.5 16.5-9.113 0-16.5-7.387-16.5-16.5 0-9.113 7.387-16.5 16.5-16.5zm-55.5 0c9.113 0 16.5 7.387 16.5 16.5 0 9.113-7.387 16.5-16.5 16.5-9.113 0-16.5-7.387-16.5-16.5 0-9.113 7.387-16.5 16.5-16.5z" fill="#000"/>
</svg>